<svg xmlns="http://www.w3.org/2000/svg" xmlns:xlink="http://www.w3.org/1999/xlink" id="Camada_1" x="0" y="0" version="1.1" viewBox="0 0 64 64" style="enable-background:new 0 0 64 64" xml:space="preserve"><style type="text/css">.st0{fill:url(#SVGID_1_)}.st1{fill:url(#SVGID_2_)}.st2{fill:url(#SVGID_3_)}.st3{fill:url(#SVGID_4_)}.st4{fill:url(#SVGID_5_)}.st5{fill:url(#SVGID_6_)}.st10,.st11,.st12,.st13,.st14{fill:none;stroke-miterlimit:10}.st6{stroke:url(#SVGID_7_)}.st6,.st7,.st8,.st9{fill:none;stroke-width:2;stroke-miterlimit:10}.st7{stroke:url(#SVGID_8_)}.st8{stroke:url(#SVGID_9_)}.st9{stroke:url(#SVGID_10_)}.st10,.st11{stroke:url(#SVGID_11_);stroke-width:5}.st11{stroke:url(#SVGID_12_)}.st12{stroke:url(#SVGID_13_)}.st12,.st13,.st14{stroke-width:2}.st13{stroke:url(#SVGID_14_)}.st14{stroke:url(#SVGID_15_)}.st15{fill:url(#SVGID_16_)}.st16{fill:url(#SVGID_17_)}.st17{fill:url(#SVGID_18_)}.st18{fill:#3e9b82}</style><g><g><g><linearGradient id="SVGID_1_" x1="53.499" x2="30.385" y1="47.039" y2="23.731" gradientUnits="userSpaceOnUse"><stop offset="0" style="stop-color:#3e9b82"/><stop offset=".177" style="stop-color:#3c957f"/><stop offset=".404" style="stop-color:#358577"/><stop offset=".657" style="stop-color:#2b6b6a"/><stop offset=".928" style="stop-color:#1c4758"/><stop offset="1" style="stop-color:#183c52"/></linearGradient><polygon points="29.03 25.07 50.32 45.7 54.85 45.7 33.82 25.07" class="st0"/><linearGradient id="SVGID_2_" x1="-1141.673" x2="-1168.639" y1="20.768" y2="20.768" gradientTransform="matrix(-1 0 0 1 -1116.4282 0)" gradientUnits="userSpaceOnUse"><stop offset=".013" style="stop-color:#3d9380"/><stop offset=".392" style="stop-color:#347b74"/><stop offset="1" style="stop-color:#224d5c"/></linearGradient><polygon points="20.14 16.46 29.03 25.07 44.44 25.07 44.44 16.46" class="st1"/><linearGradient id="SVGID_3_" x1="-1160.871" x2="-1136.569" y1="20.768" y2="20.768" gradientTransform="matrix(-1 0 0 1 -1116.4282 0)" gradientUnits="userSpaceOnUse"><stop offset="0" style="stop-color:#41a185"/><stop offset=".448" style="stop-color:#38897a"/><stop offset="1" style="stop-color:#2c6669"/></linearGradient><path d="M20.14,16.46l8.89,8.61c-0.24-6.99,15.41-8.61,15.41-8.61H20.14z" class="st2"/></g><g><linearGradient id="SVGID_4_" x1="935.496" x2="940.889" y1="-331.661" y2="-337.099" gradientTransform="matrix(1 0 0 -1 -905.0849 -298.33)" gradientUnits="userSpaceOnUse"><stop offset="0" style="stop-color:#3e9b82"/><stop offset=".293" style="stop-color:#348376"/><stop offset=".909" style="stop-color:#1c4657"/><stop offset="1" style="stop-color:#183c52"/></linearGradient><polygon points="36.82 37.09 15.53 16.46 11 16.46 32.03 37.09" class="st3"/><linearGradient id="SVGID_5_" x1="-1155.636" x2="-1121.278" y1="41.392" y2="41.392" gradientTransform="matrix(-1 0 0 1 -1116.4282 0)" gradientUnits="userSpaceOnUse"><stop offset="0" style="stop-color:#3d9480"/><stop offset=".357" style="stop-color:#347c74"/><stop offset="1" style="stop-color:#204859"/></linearGradient><polygon points="21.51 37.09 36.82 37.09 45.71 45.7 21.79 45.7 21.41 45.7 14.75 45.7 14.75 37.09" class="st4"/><linearGradient id="SVGID_6_" x1="939.952" x2="951.058" y1="-342.795" y2="-332.329" gradientTransform="matrix(1 0 0 -1 -905.0849 -298.33)" gradientUnits="userSpaceOnUse"><stop offset="0" style="stop-color:#41a185"/><stop offset=".334" style="stop-color:#388979"/><stop offset="1" style="stop-color:#234f5d"/></linearGradient><path d="M45.71,45.7l-8.89-8.61c0.24,6.99-15.41,8.61-15.41,8.61H45.71z" class="st5"/></g></g></g><linearGradient id="SVGID_7_" x1="12.389" x2="12.389" y1="12.99" y2="12.99" gradientUnits="userSpaceOnUse"><stop offset="0" style="stop-color:#385c6b"/><stop offset=".293" style="stop-color:#437478"/><stop offset=".909" style="stop-color:#60b19a"/><stop offset="1" style="stop-color:#64bb9f"/></linearGradient><path d="M12.39,12.99" class="st6"/><linearGradient id="SVGID_8_" x1="13.747" x2="13.747" y1="14.468" y2="14.468" gradientUnits="userSpaceOnUse"><stop offset="0" style="stop-color:#385c6b"/><stop offset=".293" style="stop-color:#437478"/><stop offset=".909" style="stop-color:#60b19a"/><stop offset="1" style="stop-color:#64bb9f"/></linearGradient><path d="M13.75,14.47" class="st7"/><linearGradient id="SVGID_9_" x1="11.83" x2="11.83" y1="8.237" y2="8.237" gradientUnits="userSpaceOnUse"><stop offset="0" style="stop-color:#385c6b"/><stop offset=".293" style="stop-color:#437478"/><stop offset=".909" style="stop-color:#60b19a"/><stop offset="1" style="stop-color:#64bb9f"/></linearGradient><path d="M11.83,8.24" class="st8"/><linearGradient id="SVGID_10_" x1="22.224" x2="22.224" y1="18.434" y2="18.434" gradientUnits="userSpaceOnUse"><stop offset="0" style="stop-color:#385c6b"/><stop offset=".293" style="stop-color:#437478"/><stop offset=".909" style="stop-color:#60b19a"/><stop offset="1" style="stop-color:#64bb9f"/></linearGradient><path d="M22.22,18.43" class="st9"/><linearGradient id="SVGID_11_" x1="21.821" x2="61.653" y1="26.564" y2="26.564" gradientUnits="userSpaceOnUse"><stop offset="0" style="stop-color:#3e9b82"/><stop offset=".978" style="stop-color:#3e9b82"/></linearGradient><path d="M22.65,7.12c0.58-0.2,1.16-0.39,1.76-0.56c2.38-0.66,4.89-1.02,7.48-1.02c15.05,0,27.26,11.97,27.26,26.74	c0,6.18-2.04,11.72-5.63,16.25" class="st10"/><linearGradient id="SVGID_12_" x1="2.142" x2="42.998" y1="36.66" y2="36.66" gradientUnits="userSpaceOnUse"><stop offset="0" style="stop-color:#41a185"/><stop offset=".277" style="stop-color:#378979"/><stop offset=".86" style="stop-color:#1e4c5a"/><stop offset="1" style="stop-color:#183c52"/></linearGradient><path d="M42.08,57.09c-3.15,1.24-6.58,1.93-10.18,1.93c-15.05,0-27.26-11.97-27.26-26.74c0-7.28,2.97-13.89,7.79-18.71" class="st11"/><linearGradient id="SVGID_13_" x1="58.094" x2="58.094" y1="57.678" y2="57.678" gradientUnits="userSpaceOnUse"><stop offset="0" style="stop-color:#41a185"/><stop offset=".277" style="stop-color:#378979"/><stop offset=".86" style="stop-color:#1e4c5a"/><stop offset="1" style="stop-color:#183c52"/></linearGradient><path d="M58.09,57.68" class="st12"/><linearGradient id="SVGID_14_" x1="8.787" x2="8.787" y1="10.17" y2="10.17" gradientUnits="userSpaceOnUse"><stop offset="0" style="stop-color:#41a185"/><stop offset=".277" style="stop-color:#378979"/><stop offset=".86" style="stop-color:#1e4c5a"/><stop offset="1" style="stop-color:#183c52"/></linearGradient><path d="M8.79,10.17" class="st13"/><linearGradient id="SVGID_15_" x1="11.103" x2="11.103" y1="7.639" y2="7.639" gradientUnits="userSpaceOnUse"><stop offset="0" style="stop-color:#41a185"/><stop offset=".277" style="stop-color:#378979"/><stop offset=".86" style="stop-color:#1e4c5a"/><stop offset="1" style="stop-color:#183c52"/></linearGradient><path d="M11.1,7.64" class="st14"/><linearGradient id="SVGID_16_" x1="38.688" x2="52.167" y1="57.284" y2="57.284" gradientUnits="userSpaceOnUse"><stop offset="0" style="stop-color:#21525d"/><stop offset=".345" style="stop-color:#2b6a69"/><stop offset="1" style="stop-color:#41a185"/></linearGradient><polygon points="38.69 52.18 52.17 52.37 44.89 62.38" class="st15"/><linearGradient id="SVGID_17_" x1="13.947" x2="27.192" y1="6.556" y2="6.556" gradientUnits="userSpaceOnUse"><stop offset="0" style="stop-color:#21525d"/><stop offset=".273" style="stop-color:#2b6a69"/><stop offset=".765" style="stop-color:#409e83"/><stop offset="1" style="stop-color:#41a185"/></linearGradient><polygon points="21.89 1.22 27.19 11.89 13.95 10.52" class="st16"/><linearGradient id="SVGID_18_" x1="9.264" x2="16.64" y1="14.964" y2="14.964" gradientUnits="userSpaceOnUse"><stop offset=".094" style="stop-color:#3b937e"/><stop offset="1" style="stop-color:#41a185"/></linearGradient><polygon points="16.64 17.53 11.36 12.4 10.84 12.95 9.26 14.81 11.71 17.1" class="st17"/><path d="M56.95,47.91c0,0-1.66,2.61-1.85,2.65C54.67,50.16,56.95,47.91,56.95,47.91z" class="st18"/><path d="M49.34,45.7" class="st18"/><polygon points="49.96 45.35 55.05 50.5 56.95 47.91 53.27 44.21" class="st18"/></svg>